<svg xmlns="http://www.w3.org/2000/svg" width="128" height="128" viewBox="0 0 128 128">
  <g id="icon" transform="translate(-354 -349)">
    <rect id="Rectangle_2" data-name="Rectangle 2" width="128" height="128" transform="translate(354 349)" fill="#302a77"/>
    <g id="Logo" transform="translate(386.442 378.897)">
      <g id="Path_1" data-name="Path 1" transform="translate(0 4.276)" fill="none">
        <path d="M30.465,0A30.465,30.465,0,1,1,0,30.465,30.466,30.466,0,0,1,30.465,0Z" stroke="none"/>
        <path d="M 30.46549987792969 15 C 21.93779373168945 15 15 21.93779373168945 15 30.46549987792969 C 15 38.99320220947266 21.93779373168945 45.93099975585938 30.46549987792969 45.93099975585938 C 38.99320220947266 45.93099975585938 45.93099975585938 38.99320220947266 45.93099975585938 30.46549987792969 C 45.93099975585938 21.93779373168945 38.99320220947266 15 30.46549987792969 15 M 30.46549987792969 0 C 47.2911376953125 0 60.93099975585938 13.63986206054688 60.93099975585938 30.46549987792969 C 60.93099975585938 47.2911376953125 47.2911376953125 60.93099975585938 30.46549987792969 60.93099975585938 C 13.63986206054688 60.93099975585938 0 47.2911376953125 0 30.46549987792969 C 0 13.63986206054688 13.63986206054688 0 30.46549987792969 0 Z" stroke="none" fill="#f0a500"/>
      </g>
      <g id="Ellipse_1" data-name="Ellipse 1" transform="translate(31)" fill="#fff" stroke="#302a77" stroke-width="10">
        <circle cx="15.5" cy="15.5" r="15.5" stroke="none"/>
        <circle cx="15.5" cy="15.5" r="10.5" fill="none"/>
      </g>
    </g>
  </g>
</svg>
